<?xml version="1.0" encoding="utf-8"?>
<!-- Generator: Adobe Illustrator 26.0.1, SVG Export Plug-In . SVG Version: 6.00 Build 0)  -->
<svg version="1.1" id="Layer_1" xmlns="http://www.w3.org/2000/svg" xmlns:xlink="http://www.w3.org/1999/xlink" x="0px" y="0px"
	 viewBox="0 0 1108.1 1113.1" style="enable-background:new 0 0 1108.1 1113.1;" xml:space="preserve">
<style type="text/css">
	.st0{stroke:#000000;stroke-miterlimit:10;}
	.st1{fill:none;stroke:#000000;stroke-width:5;stroke-linecap:round;stroke-linejoin:round;stroke-miterlimit:10;}
	.st2{fill:none;stroke:#000000;stroke-width:5;stroke-linejoin:round;stroke-miterlimit:10;}
	.st3{fill:none;stroke:#000000;stroke-width:6;stroke-linecap:round;stroke-linejoin:round;stroke-miterlimit:10;}
	.st4{fill:none;stroke:#F7941D;stroke-width:2.659;stroke-linecap:round;stroke-linejoin:round;stroke-miterlimit:10;}
</style>
<polygon points="932.6,964.1 921.9,973.3 920.3,971.5 928.9,964.1 924.7,959.2 917.3,965.6 915.7,963.7 923.1,957.3 916.8,950.2 
	918.9,948.4 "/>
<polygon points="864.4,992.8 876.2,1009.9 863.8,1018.5 862.4,1016.4 872.5,1009.5 868.9,1004.2 859.4,1010.8 858.1,1008.8 
	867.5,1002.2 863.5,996.4 853,1003.6 851.6,1001.6 "/>
<path d="M842.7,493.4l-198.2,599.2l-159.7-52.8l42.5-133.7l-166.9-55.2l52.2-153.8c16.9,42.1,66.1,79.3,114,87.2
	c72.9,11.9,141.8-37.5,153.7-110.4c12-73-37.5-141.8-110.4-153.7c-38.9-6.4-79.2,4.3-107.7,27l54.4-161.6L842.7,493.4z"/>
<polygon points="803.6,1030.2 813.4,1048.6 811,1049.9 801.1,1031.5 "/>
<path d="M755.8,1072.4l0.9,2.3l-13.9,5.4l-0.9-2.3l5.7-17.7l0.6-1.8l-12.4,4.8l-0.9-2.3l15.4-5.9l0.9,2.4l-5.2,16.3
	c-0.4,1.1-0.8,2.2-1.1,3.1L755.8,1072.4z"/>
<path class="st0" d="M729.9,266.5l-50.8,154.3c-17.3-41.9-66.8-78.7-114.8-86.1c-73-11.3-141.4,38.8-152.6,111.9
	c-11.3,73.1,38.8,141.4,111.9,152.7c38.9,6,79.2-5,107.5-28.1l-52.9,162.1L251,628.4l192.5-601l160.2,51.3l-41.3,134.1L729.9,266.5z
	"/>
<polygon points="681.1,1076.4 685.3,1096.8 682.5,1097.3 678.4,1076.9 "/>
<path d="M414.6,40.8l0.7,2.3l-15.7,4.8l-0.7-2.5l6.3-15.9c0.4-1.1,0.9-2.1,1.4-3L395.4,30l-0.7-2.3l14.3-4.4l0.7,2.3l-6.9,17.3
	l-0.8,1.7L414.6,40.8z"/>
<path d="M330,52l16.4,15.4l-2.8,1.3l-4.8-4.8l-7.9,3.6l0.5,6.7l-2.7,1.2l-1.4-22.3L330,52z M337,62.3l-4.4-4.4
	c-1.3-1.3-2.4-2.4-3.1-3.3c0.3,1.3,0.5,2.7,0.7,4.1l0.5,6.5L337,62.3z"/>
<polygon points="266.3,85.6 277.5,103.2 275.1,104.7 257.1,96.8 265.9,110.6 263.7,112 252.5,94.5 254.9,92.9 272.9,100.8 
	264.1,87.1 "/>
<path d="M217.7,145.7l-2.4,2l-5.9-3.2l-6.7,5.6l2.3,6.3l-2.2,1.9l-7.4-21.1l2.3-1.9L217.7,145.7z M201.9,147.9l5.4-4.6l-5.4-3
	c-1.6-0.9-3-1.7-4-2.3c0.7,1.2,1.3,2.4,1.7,3.8L201.9,147.9z"/>
<path d="M157.9,197.9c0.3,1.1,0.3,2.3-0.1,3.6c-0.4,1.2-1.1,2.4-2.1,3.5c-1.2,1.4-2.5,2.4-3.8,3c-1.3,0.6-2.5,0.8-3.8,0.6
	c-1.3-0.2-2.5-0.7-3.6-1.6l1.6-2.1c0.9,0.6,1.7,1,2.5,1.1c0.8,0.1,1.7-0.1,2.6-0.5c0.9-0.4,1.8-1.1,2.6-2c0.7-0.8,1.2-1.6,1.5-2.4
	c0.3-0.8,0.4-1.5,0.2-2.2c-0.2-0.7-0.5-1.2-0.9-1.6c-0.5-0.4-1-0.7-1.7-0.7c-0.6-0.1-1.3,0.2-2.2,0.6c-0.5,0.3-1.6,1-3.2,2.1
	c-1.6,1.1-2.8,1.8-3.6,2.1c-1,0.4-2,0.5-2.9,0.4c-0.9-0.1-1.7-0.6-2.4-1.2c-0.8-0.7-1.3-1.6-1.6-2.6c-0.3-1-0.2-2.2,0.2-3.3
	c0.4-1.2,1.1-2.3,2-3.3c1-1.2,2.1-2,3.3-2.6c1.1-0.6,2.3-0.7,3.4-0.6c1.1,0.2,2.2,0.7,3.1,1.4l-1.6,2.1c-1.1-0.8-2.1-1.1-3.2-0.9
	c-1.1,0.2-2.1,0.8-3.2,2c-1.1,1.2-1.7,2.3-1.7,3.3c-0.1,1,0.2,1.7,0.9,2.3c0.5,0.5,1.2,0.7,1.9,0.6c0.7-0.1,2-0.8,3.9-2.1
	c1.8-1.3,3.2-2.2,4.1-2.6c1.2-0.5,2.3-0.7,3.4-0.6c1,0.1,2,0.6,2.8,1.4C157,195.8,157.6,196.8,157.9,197.9z"/>
<path class="st1" d="M630.9,573.2c-28.3,23-68.5,34-107.5,28.1c-73-11.3-123.1-79.6-111.9-152.7c11.2-73,79.6-123.1,152.6-111.9
	c48,7.4,97.6,44.2,114.8,86.1l50.8-154.3l-167.4-53.6l41.3-134.1L443.6,29.5L251,630.5l327.1,104.8L630.9,573.2z"/>
<path class="st2" d="M462.2,549.3c28.6-22.8,68.9-33.4,107.7-27c73,11.9,122.4,80.7,110.4,153.7c-11.9,72.9-80.8,122.4-153.7,110.4
	c-48-7.9-97.2-45.2-114-87.2L360.5,853l166.9,55.2l-42.5,133.7l159.7,52.8l198.2-599.2L516.6,387.6L462.2,549.3z"/>
<path class="st3" d="M444.3,27.1C480,19.7,516,16,553.9,16c300.4,0,543.9,243.5,543.9,543.9c0,144.6-56.5,276.1-148.5,373.5"/>
<path class="st3" d="M644,1096.3c-30,5.1-58.7,7.6-90.2,7.6C253.5,1103.9,10,860.4,10,560c0-126.2,43-242.4,115.1-334.7"/>
</svg>
